HIERARCHY
ROOT ui
{
	 OFFSET 0 0 0
	 CHANNELS 3 XPosition YPosition Z Position
	 EndSite
	 {
	 OFFSET 0 -1 0
	 }
}
ROOT li
{
	 OFFSET 0 0 0
	 CHANNELS 3 XPosition YPosition Z Position
	 EndSite
	 {
	 OFFSET 0 -1 0
	 }
}
ROOT ul
{
	 OFFSET 0 0 0
	 CHANNELS 3 XPosition YPosition Z Position
	 EndSite
	 {
	 OFFSET 0 -1 0
	 }
}
ROOT ll
{
	 OFFSET 0 0 0
	 CHANNELS 3 XPosition YPosition Z Position
	 EndSite
	 {
	 OFFSET 0 -1 0
	 }
}
ROOT tt
{
	 OFFSET 0 0 0
	 CHANNELS 3 XPosition YPosition Z Position
	 EndSite
	 {
	 OFFSET 0 -1 0
	 }
}
ROOT tb
{
	 OFFSET 0 0 0
	 CHANNELS 3 XPosition YPosition Z Position
	 EndSite
	 {
	 OFFSET 0 -1 0
	 }
}
ROOT td
{
	 OFFSET 0 0 0
	 CHANNELS 3 XPosition YPosition Z Position
	 EndSite
	 {
	 OFFSET 0 -1 0
	 }
}
ROOT v
{
	 OFFSET 0 0 0
	 CHANNELS 3 XPosition YPosition Z Position
	 EndSite
	 {
	 OFFSET 0 -1 0
	 }
}
ROOT bn
{
	 OFFSET 0 0 0
	 CHANNELS 3 XPosition YPosition Z Position
	 EndSite
	 {
	 OFFSET 0 -1 0
	 }
}
MOTION
Frames: 29
Frame Time: 0.002
0.005408863067626953	-5.976870059967041E-4	0		0.45228094482421877	-2.29907763671875	0		-1.120292724609375	-0.042845443725585936	0		-0.7413580322265625	-2.3363740234375	0		1.3864764404296874	-0.57698486328125	0		2.973085693359375	0.16988059997558594	0		4.52780126953125	0.21012327575683593	0		5.6008447265625	0.13412882995605468	0		-0.38125717163085937	5.88439111328125	0		
-0.01592556381225586	0.003766899108886719	0		0.41841629028320315	-2.2856708984375	0		-1.1196986083984375	-0.04247146606445312	0		-0.7013980102539062	-2.334680419921875	0		1.4468681640625	-0.5811873779296876	0		2.942458251953125	0.14952406311035157	0		4.538466796875	0.20873262023925782	0		5.60764697265625	0.12952786254882812	0		-0.23250466918945312	5.9154638671875	0		
-0.019334362030029296	-1.2475500255823134E-4	0		0.45220367431640623	-2.2992421875	0		-1.1290328369140625	-0.03995395660400391	0		-0.7414567260742188	-2.33584716796875	0		1.376572509765625	-0.5655316162109375	0		2.97933544921875	0.16118359375	0		4.52508984375	0.20165689086914063	0		5.60389404296875	0.1442643585205078	0		-0.2442734375	5.90578125	0		
-0.018662109375	-8.155100047588348E-5	0		0.45016070556640625	-2.302306396484375	0		-1.132416259765625	-0.04252717971801758	0		-0.6725775756835938	-2.343618408203125	0		1.4339842529296876	-0.5727424926757813	0		2.938969970703125	0.15496214294433594	0		4.530923828125	0.20729908752441406	0		5.6043349609375	0.14154385375976564	0		-0.2418780517578125	5.90589013671875	0		
-0.017978662490844725	-4.629100114107132E-5	0		0.4501826477050781	-2.30240576171875	0		-1.1217764892578126	-0.0443232307434082	0		-0.7414534912109375	-2.33535009765625	0		1.385357177734375	-0.582380859375	0		2.934804443359375	0.16122256469726562	0		4.5265615234375	0.19910369873046874	0		5.60254833984375	0.1233625717163086	0		-0.2394976501464844	5.9059892578125	0		
-0.008309182167053222	-0.0011580990552902222	0		0.4273507995605469	-2.294155517578125	0		-1.1129957275390625	-0.03711178970336914	0		-0.7393746337890625	-2.33215185546875	0		1.408923828125	-0.5801017456054688	0		2.959193115234375	0.1380557403564453	0		4.53527099609375	0.1957362060546875	0		5.60940576171875	0.11876076507568359	0		-0.22103799438476562	5.913830078125	0		
0.017355003356933595	-0.002534477949142456	0		0.45844259643554686	-2.292743896484375	0		-1.1123223876953126	-0.03679758071899414	0		-0.73525830078125	-2.328001708984375	0		1.4155596923828124	-0.5735631103515625	0		2.955338134765625	0.16434628295898437	0		4.53213330078125	0.20258807373046875	0		5.6085966796875	0.14220603942871093	0		-0.3530721435546875	5.89501025390625	0		
0.013111038208007813	0.002546092987060547	0		0.4524157409667969	-2.299759765625	0		-1.1216224365234375	-0.03434507369995117	0		-0.680254150390625	-2.332683349609375	0		1.436085205078125	-0.5742420654296875	0		2.941866943359375	0.15181393432617188	0		4.53876513671875	0.19532850646972658	0		5.60613525390625	0.13120928955078126	0		-0.2326810302734375	5.9062216796875	0		
-0.010351482391357423	-0.005068871021270752	0		0.4504666748046875	-2.302839599609375	0		-1.12503173828125	-0.03800641250610352	0		-0.7412034912109375	-2.334529296875	0		1.3966453857421874	-0.571947998046875	0		2.9425673828125	0.15109060668945312	0		4.5294775390625	0.19437557983398437	0		5.60016845703125	0.13084539794921876	0		-0.23056906127929688	5.90627685546875	0		
0.011369660377502441	-4.212439954280853E-4	0		0.4505770263671875	-2.30295263671875	0		-1.1243975830078126	-0.037755077362060546	0		-0.70513818359375	-2.3369580078125	0		1.4079407958984376	-0.5854589233398437	0		2.96312744140625	0.14307333374023437	0		4.5301650390625	0.19331913757324218	0		5.6111640625	0.10917002868652344	0		-0.22856008911132814	5.9063212890625	0		
-0.01401243495941162	-5.607999861240387E-6	0		0.42677877807617187	-2.297666259765625	0		-1.1138260498046875	-0.039692569732666015	0		-0.7389423828125	-2.331254638671875	0		1.391513916015625	-0.5804966430664062	0		2.94910791015625	0.1626630859375	0		4.5349208984375	0.19825465393066405	0		5.60096826171875	0.12134101104736328	0		-0.3448321533203125	5.89732275390625	0		
-0.009367502212524415	0.003909416913986206	0		0.4548888854980469	-2.298244140625	0		-1.11510400390625	-0.03045501899719238	0		-0.7368016357421875	-2.3291591796875	0		1.3811785888671875	-0.5686137084960937	0		2.9493818359375	0.1420506134033203	0		4.54553759765625	0.19715052795410157	0		5.611953125	0.1051048355102539	0		-0.35824655151367185	5.886626953125	0		
-0.012898816108703613	-4.362199828028679E-5	0		0.4529622192382812	-2.300318115234375	0		-1.1186246337890624	-0.03320209121704101	0		-0.7407848510742188	-2.333976318359375	0		1.401588134765625	-0.5702354125976562	0		2.9742470703125	0.15906561279296874	0		4.53123095703125	0.2035343322753906	0		5.608150390625	0.12075524139404296	0		-0.22325804138183594	5.90639990234375	0		
-0.012409398078918457	-6.796099990606308E-5	0		0.4681104736328125	-2.29768017578125	0		-1.1222091064453126	-0.036969226837158205	0		-0.7155921630859375	-2.328308349609375	0		1.3989295654296876	-0.5734478759765625	0		2.945578369140625	0.14803488159179687	0		4.5345478515625	0.19068852233886718	0		5.6084755859375	0.11908648681640625	0		-0.22274833679199219	5.90742822265625	0		
-0.00705440092086792	-0.005181068897247314	0		0.425157958984375	-2.300032958984375	0		-1.1177032470703125	-0.03289751434326172	0		-0.7406041259765626	-2.333793212890625	0		1.399284912109375	-0.5736895751953125	0		2.941165771484375	0.15464369201660155	0		4.53710595703125	0.19493437194824217	0		5.60651904296875	0.10210505676269531	0		-0.2204246826171875	5.906416015625	0		
-0.007499705791473388	0.003805495023727417	0		0.45527871704101563	-2.2986455078125	0		-1.107346435546875	-0.03495334243774414	0		-0.736431396484375	-2.328795654296875	0		1.3965189208984374	-0.578853759765625	0		2.960318603515625	0.13888995361328124	0		4.54138916015625	0.18622879028320313	0		5.6131884765625	0.09877339935302734	0		-0.20310009765625	5.91413330078125	0		
8.212190270423889E-4	0.0016346969604492188	0		0.45945928955078125	-2.293800048828125	0		-1.1029412841796875	-0.0319282169342041	0		-0.698365234375	-2.3304111328125	0		1.4598172607421875	-0.5791549682617188	0		2.96513134765625	0.1634447784423828	0		4.5379091796875	0.1937456817626953	0		5.6193203125	0.12332344818115235	0		-0.20402877807617187	5.91616064453125	0		
0.015105071067810059	-6.437159776687622E-4	0		0.4793802185058594	-2.3042275390625	0		-1.116638427734375	-0.032604957580566404	0		-0.7403318481445312	-2.33363037109375	0		1.4032158203125	-0.5713173828125	0		2.95204541015625	0.13936349487304686	0		4.5392666015625	0.19426158142089844	0		5.61364111328125	0.09664962768554687	0		-0.2031396484375	5.9161494140625	0		
-0.006529888153076172	0.0037160379886627196	0		0.4446929626464844	-2.292673828125	0		-1.1163505859375	-0.03254803466796875	0		-0.6791788330078125	-2.331688232421875	0		1.4403671875	-0.5771134643554687	0		2.946685546875	0.1582082214355469	0		4.52957373046875	0.19405723571777345	0		5.61383642578125	0.09585497283935547	0		-0.21656549072265624	5.90638623046875	0		
0.015658639907836915	-7.0420902967453E-4	0		0.4516207885742187	-2.303852294921875	0		-1.11608935546875	-0.032509490966796874	0		-0.7400997314453125	-2.3335869140625	0		1.3837117919921875	-0.5702123413085938	0		2.96761572265625	0.13863055419921874	0		4.53472265625	0.18666799926757813	0		5.6034580078125	0.11471983337402344	0		-0.20273486328125	5.91813671875	0		
-0.006027984142303467	0.0036605360507965088	0		0.4289049072265625	-2.295489501953125	0		-1.1058897705078126	-0.034666709899902344	0		-0.7358749389648438	-2.328654296875	0		1.403904052734375	-0.5716582641601563	0		2.9692177734375	0.1584517822265625	0		4.539076171875	0.19236907958984376	0		5.6141787109375	0.09476232147216797	0		-0.2012729949951172	5.91610009765625	0		
0.01916476249694824	0.0021858179569244386	0		0.4580304260253906	-2.29704833984375	0		-1.111585693359375	-0.029554981231689453	0		-0.735727783203125	-2.328659912109375	0		1.392068115234375	-0.5735105590820313	0		2.9530810546875	0.1386287078857422	0		4.5392958984375	0.19221058654785156	0		5.60377099609375	0.11393032836914062	0		-0.33324221801757814	5.8974482421875	0		
-0.005622688770294189	0.0036061990261077883	0		0.45411434936523437	-2.3010107421875	0		-1.11544873046875	-0.03249312973022461	0		-0.70166845703125	-2.33428515625	0		1.4442593994140625	-0.5734925537109375	0		2.99359033203125	0.1558350830078125	0		4.545380859375	0.18600611877441406	0		5.61031005859375	0.11172590637207032	0		-0.2157639923095703	5.9073251953125	0		
-0.004619283199310303	-0.00544005012512207	0		0.4542721252441406	-2.301041748046875	0		-1.1152838134765626	-0.032519405364990234	0		-0.739504638671875	-2.333631103515625	0		1.3844681396484375	-0.5704508056640625	0		2.95265478515625	0.15053239440917968	0		4.5306748046875	0.19323004150390624	0		5.60817236328125	0.09617000579833984	0		-0.2155804443359375	5.9072958984375	0		
-0.009390972137451171	-3.850409984588623E-4	0		0.45237518310546876	-2.30403564453125	0		-1.1092542724609376	-0.03866891860961914	0		-0.7033894653320313	-2.336316162109375	0		1.4094810791015624	-0.5779205322265625	0		2.948702392578125	0.14559516906738282	0		4.54568310546875	0.18596528625488282	0		5.614677734375	0.09418043518066406	0		-0.20033177185058593	5.915990234375	0		
-3.0031201243400576E-4	-0.0015856479406356812	0		0.42967437744140624	-2.295656005859375	0		-1.1050726318359374	-0.0348008918762207	0		-0.7351061401367187	-2.32879638671875	0		1.4016387939453125	-0.5757910766601563	0		2.9626640625	0.13736026000976562	0		4.54375390625	0.18404525756835938	0		5.61129541015625	0.1082802734375	0		-0.33272088623046875	5.8953154296875	0		
-2.1735499799251557E-4	-0.0016316909790039062	0		0.46085098266601565	-2.2942451171875	0		-1.1009356689453125	-0.031949220657348634	0		-0.6969834594726563	-2.3305419921875	0		1.4109327392578126	-0.5649614868164062	0		2.982187255859375	0.1620515441894531	0		4.54997412109375	0.1920150909423828	0		5.61776416015625	0.10645442199707031	0		-0.1862146759033203	5.9266435546875	0		
-0.005069952011108398	0.0034032769203186037	0		0.447045654296875	-2.29103271484375	0		-1.1108399658203125	-0.029863674163818358	0		-0.7487457275390625	-2.32469287109375	0		1.4048861083984374	-0.5718565673828125	0		2.938835205078125	0.1398753662109375	0		4.53591943359375	0.1863743133544922	0		5.610716796875	0.11220067596435547	0		-0.2015264434814453	5.9178525390625	0		
-0.004196794986724853	-0.0056748919486999515	0		0.47890524291992187	-2.306642578125	0		-1.1148577880859376	-0.032901073455810545	0		-0.7048509521484375	-2.33856787109375	0		1.4049443359375	-0.5718580322265625	0		2.94896826171875	0.14576052856445312	0		4.54183740234375	0.18040093994140624	0		5.60851806640625	0.10048771667480469	0		-0.20174594116210937	5.9177822265625	0		
